<mxfile host="app.diagrams.net" modified="2021-06-25T19:32:21.990Z" agent="5.0 (Windows NT 10.0; Win64; x64) AppleWebKit/537.36 (KHTML, like Gecko) Chrome/91.0.4472.101 Safari/537.36 OPR/77.0.4054.90" etag="YeVZ-69YIrrUDtyQAuUq" version="14.7.8" type="github" pages="3">
  <diagram id="kEIfM25zizZhZ6Kc5jZf" name="Structure">
    <mxGraphModel dx="1382" dy="764" grid="1" gridSize="10" guides="1" tooltips="1" connect="1" arrows="1" fold="1" page="1" pageScale="1" pageWidth="850" pageHeight="1100" math="0" shadow="0">
      <root>
        <mxCell id="0" />
        <mxCell id="1" parent="0" />
        <mxCell id="NqMpsVKDhAfN20PhDk_8-6" style="edgeStyle=orthogonalEdgeStyle;rounded=0;orthogonalLoop=1;jettySize=auto;html=1;exitX=0;exitY=0.5;exitDx=0;exitDy=0;entryX=1;entryY=0.5;entryDx=0;entryDy=0;dashed=1;" edge="1" parent="1" source="NqMpsVKDhAfN20PhDk_8-2" target="NqMpsVKDhAfN20PhDk_8-4">
          <mxGeometry relative="1" as="geometry">
            <Array as="points">
              <mxPoint x="270" y="230" />
            </Array>
          </mxGeometry>
        </mxCell>
        <mxCell id="NqMpsVKDhAfN20PhDk_8-14" style="edgeStyle=orthogonalEdgeStyle;rounded=0;orthogonalLoop=1;jettySize=auto;html=1;exitX=1;exitY=0.5;exitDx=0;exitDy=0;entryX=0;entryY=0.5;entryDx=0;entryDy=0;" edge="1" parent="1" source="NqMpsVKDhAfN20PhDk_8-2" target="NqMpsVKDhAfN20PhDk_8-10">
          <mxGeometry relative="1" as="geometry" />
        </mxCell>
        <mxCell id="NqMpsVKDhAfN20PhDk_8-15" style="edgeStyle=orthogonalEdgeStyle;rounded=0;orthogonalLoop=1;jettySize=auto;html=1;exitX=1;exitY=0.5;exitDx=0;exitDy=0;entryX=0;entryY=0.5;entryDx=0;entryDy=0;" edge="1" parent="1" source="NqMpsVKDhAfN20PhDk_8-2" target="NqMpsVKDhAfN20PhDk_8-9">
          <mxGeometry relative="1" as="geometry" />
        </mxCell>
        <mxCell id="NqMpsVKDhAfN20PhDk_8-16" style="edgeStyle=orthogonalEdgeStyle;rounded=0;orthogonalLoop=1;jettySize=auto;html=1;exitX=1;exitY=0.5;exitDx=0;exitDy=0;entryX=0;entryY=0.5;entryDx=0;entryDy=0;entryPerimeter=0;" edge="1" parent="1" source="NqMpsVKDhAfN20PhDk_8-2" target="NqMpsVKDhAfN20PhDk_8-8">
          <mxGeometry relative="1" as="geometry" />
        </mxCell>
        <mxCell id="3QHtiIeBiJ7OlSHWTBUB-1" style="edgeStyle=orthogonalEdgeStyle;rounded=0;orthogonalLoop=1;jettySize=auto;html=1;exitX=1;exitY=0.5;exitDx=0;exitDy=0;entryX=0;entryY=0.5;entryDx=0;entryDy=0;" edge="1" parent="1" source="NqMpsVKDhAfN20PhDk_8-2" target="NqMpsVKDhAfN20PhDk_8-11">
          <mxGeometry relative="1" as="geometry">
            <Array as="points">
              <mxPoint x="430" y="230" />
              <mxPoint x="430" y="100" />
            </Array>
          </mxGeometry>
        </mxCell>
        <mxCell id="NqMpsVKDhAfN20PhDk_8-2" value="State" style="rounded=0;whiteSpace=wrap;html=1;" vertex="1" parent="1">
          <mxGeometry x="280" y="200" width="120" height="60" as="geometry" />
        </mxCell>
        <mxCell id="NqMpsVKDhAfN20PhDk_8-4" value="Player Info" style="shape=step;perimeter=stepPerimeter;whiteSpace=wrap;html=1;fixedSize=1;" vertex="1" parent="1">
          <mxGeometry x="50" y="190" width="120" height="80" as="geometry" />
        </mxCell>
        <mxCell id="NqMpsVKDhAfN20PhDk_8-8" value="Main Menu" style="rounded=1;whiteSpace=wrap;html=1;" vertex="1" parent="1">
          <mxGeometry x="460" y="280" width="90" height="40" as="geometry" />
        </mxCell>
        <mxCell id="NqMpsVKDhAfN20PhDk_8-9" value="Home" style="rounded=1;whiteSpace=wrap;html=1;" vertex="1" parent="1">
          <mxGeometry x="460" y="220" width="90" height="40" as="geometry" />
        </mxCell>
        <mxCell id="NqMpsVKDhAfN20PhDk_8-10" value="Game" style="rounded=1;whiteSpace=wrap;html=1;" vertex="1" parent="1">
          <mxGeometry x="460" y="160" width="90" height="40" as="geometry" />
        </mxCell>
        <mxCell id="3QHtiIeBiJ7OlSHWTBUB-2" style="edgeStyle=orthogonalEdgeStyle;rounded=0;orthogonalLoop=1;jettySize=auto;html=1;exitX=0.5;exitY=1;exitDx=0;exitDy=0;entryX=1;entryY=0.5;entryDx=0;entryDy=0;dashed=1;" edge="1" parent="1" source="NqMpsVKDhAfN20PhDk_8-11" target="NqMpsVKDhAfN20PhDk_8-10">
          <mxGeometry relative="1" as="geometry" />
        </mxCell>
        <mxCell id="3QHtiIeBiJ7OlSHWTBUB-3" style="edgeStyle=orthogonalEdgeStyle;rounded=0;orthogonalLoop=1;jettySize=auto;html=1;exitX=0.5;exitY=1;exitDx=0;exitDy=0;entryX=1;entryY=0.5;entryDx=0;entryDy=0;dashed=1;" edge="1" parent="1" source="NqMpsVKDhAfN20PhDk_8-11" target="NqMpsVKDhAfN20PhDk_8-9">
          <mxGeometry relative="1" as="geometry" />
        </mxCell>
        <mxCell id="NqMpsVKDhAfN20PhDk_8-11" value="Menu" style="rounded=1;whiteSpace=wrap;html=1;" vertex="1" parent="1">
          <mxGeometry x="640" y="80" width="90" height="40" as="geometry" />
        </mxCell>
      </root>
    </mxGraphModel>
  </diagram>
  <diagram id="nBG3Ood8k03j668jLn8-" name="Items">
    <mxGraphModel dx="2232" dy="764" grid="1" gridSize="10" guides="1" tooltips="1" connect="1" arrows="1" fold="1" page="1" pageScale="1" pageWidth="850" pageHeight="1100" math="0" shadow="0">
      <root>
        <mxCell id="Mm54XUP0O8C1013zPJVE-0" />
        <mxCell id="Mm54XUP0O8C1013zPJVE-1" parent="Mm54XUP0O8C1013zPJVE-0" />
        <mxCell id="H8FJRkdg-tG_NGc22QOD-3" style="edgeStyle=orthogonalEdgeStyle;rounded=0;orthogonalLoop=1;jettySize=auto;html=1;exitX=0.5;exitY=1;exitDx=0;exitDy=0;entryX=0.5;entryY=0;entryDx=0;entryDy=0;" edge="1" parent="Mm54XUP0O8C1013zPJVE-1" source="H8FJRkdg-tG_NGc22QOD-0" target="H8FJRkdg-tG_NGc22QOD-2">
          <mxGeometry relative="1" as="geometry" />
        </mxCell>
        <mxCell id="H8FJRkdg-tG_NGc22QOD-5" style="edgeStyle=orthogonalEdgeStyle;rounded=0;orthogonalLoop=1;jettySize=auto;html=1;exitX=0.5;exitY=1;exitDx=0;exitDy=0;entryX=0.5;entryY=0;entryDx=0;entryDy=0;" edge="1" parent="Mm54XUP0O8C1013zPJVE-1" source="H8FJRkdg-tG_NGc22QOD-0" target="H8FJRkdg-tG_NGc22QOD-4">
          <mxGeometry relative="1" as="geometry" />
        </mxCell>
        <mxCell id="H8FJRkdg-tG_NGc22QOD-12" style="edgeStyle=orthogonalEdgeStyle;rounded=0;orthogonalLoop=1;jettySize=auto;html=1;exitX=0.5;exitY=1;exitDx=0;exitDy=0;entryX=0.5;entryY=0;entryDx=0;entryDy=0;" edge="1" parent="Mm54XUP0O8C1013zPJVE-1" source="H8FJRkdg-tG_NGc22QOD-0" target="H8FJRkdg-tG_NGc22QOD-11">
          <mxGeometry relative="1" as="geometry" />
        </mxCell>
        <mxCell id="H8FJRkdg-tG_NGc22QOD-0" value="Buildings" style="rounded=0;whiteSpace=wrap;html=1;" vertex="1" parent="Mm54XUP0O8C1013zPJVE-1">
          <mxGeometry x="-50" y="270" width="120" height="60" as="geometry" />
        </mxCell>
        <mxCell id="H8FJRkdg-tG_NGc22QOD-7" style="edgeStyle=orthogonalEdgeStyle;rounded=0;orthogonalLoop=1;jettySize=auto;html=1;exitX=0.5;exitY=1;exitDx=0;exitDy=0;entryX=0.5;entryY=0;entryDx=0;entryDy=0;" edge="1" parent="Mm54XUP0O8C1013zPJVE-1" source="H8FJRkdg-tG_NGc22QOD-1" target="H8FJRkdg-tG_NGc22QOD-6">
          <mxGeometry relative="1" as="geometry" />
        </mxCell>
        <mxCell id="H8FJRkdg-tG_NGc22QOD-10" style="edgeStyle=orthogonalEdgeStyle;rounded=0;orthogonalLoop=1;jettySize=auto;html=1;exitX=0.5;exitY=1;exitDx=0;exitDy=0;entryX=0.5;entryY=0;entryDx=0;entryDy=0;" edge="1" parent="Mm54XUP0O8C1013zPJVE-1" source="H8FJRkdg-tG_NGc22QOD-1" target="H8FJRkdg-tG_NGc22QOD-8">
          <mxGeometry relative="1" as="geometry" />
        </mxCell>
        <mxCell id="H8FJRkdg-tG_NGc22QOD-1" value="Units" style="rounded=0;whiteSpace=wrap;html=1;" vertex="1" parent="Mm54XUP0O8C1013zPJVE-1">
          <mxGeometry x="517.5" y="260" width="120" height="60" as="geometry" />
        </mxCell>
        <mxCell id="H8FJRkdg-tG_NGc22QOD-2" value="Spawners" style="rounded=0;whiteSpace=wrap;html=1;" vertex="1" parent="Mm54XUP0O8C1013zPJVE-1">
          <mxGeometry x="-190" y="400" width="120" height="60" as="geometry" />
        </mxCell>
        <mxCell id="H8FJRkdg-tG_NGc22QOD-4" value="Economy Generator" style="rounded=0;whiteSpace=wrap;html=1;" vertex="1" parent="Mm54XUP0O8C1013zPJVE-1">
          <mxGeometry x="-50" y="400" width="120" height="60" as="geometry" />
        </mxCell>
        <mxCell id="H8FJRkdg-tG_NGc22QOD-6" value="Economy" style="rounded=0;whiteSpace=wrap;html=1;" vertex="1" parent="Mm54XUP0O8C1013zPJVE-1">
          <mxGeometry x="595" y="400" width="120" height="60" as="geometry" />
        </mxCell>
        <mxCell id="H8FJRkdg-tG_NGc22QOD-8" value="Combat" style="rounded=0;whiteSpace=wrap;html=1;" vertex="1" parent="Mm54XUP0O8C1013zPJVE-1">
          <mxGeometry x="440" y="400" width="120" height="60" as="geometry" />
        </mxCell>
        <mxCell id="H8FJRkdg-tG_NGc22QOD-11" value="Defense/Attack" style="rounded=0;whiteSpace=wrap;html=1;" vertex="1" parent="Mm54XUP0O8C1013zPJVE-1">
          <mxGeometry x="90" y="400" width="120" height="60" as="geometry" />
        </mxCell>
        <mxCell id="H8FJRkdg-tG_NGc22QOD-19" style="edgeStyle=orthogonalEdgeStyle;rounded=0;orthogonalLoop=1;jettySize=auto;html=1;exitX=0.5;exitY=1;exitDx=0;exitDy=0;entryX=0.5;entryY=0;entryDx=0;entryDy=0;" edge="1" parent="Mm54XUP0O8C1013zPJVE-1" source="H8FJRkdg-tG_NGc22QOD-13" target="H8FJRkdg-tG_NGc22QOD-18">
          <mxGeometry relative="1" as="geometry" />
        </mxCell>
        <mxCell id="H8FJRkdg-tG_NGc22QOD-13" value="Currency" style="rounded=0;whiteSpace=wrap;html=1;" vertex="1" parent="Mm54XUP0O8C1013zPJVE-1">
          <mxGeometry x="-70" y="560" width="120" height="60" as="geometry" />
        </mxCell>
        <mxCell id="H8FJRkdg-tG_NGc22QOD-18" value="Coins" style="rounded=1;whiteSpace=wrap;html=1;" vertex="1" parent="Mm54XUP0O8C1013zPJVE-1">
          <mxGeometry x="-200" y="690" width="120" height="60" as="geometry" />
        </mxCell>
      </root>
    </mxGraphModel>
  </diagram>
  <diagram id="I1zqG8G090VhmEKgnmgG" name="Game Structure">
    <mxGraphModel dx="2232" dy="764" grid="1" gridSize="10" guides="1" tooltips="1" connect="1" arrows="1" fold="1" page="1" pageScale="1" pageWidth="850" pageHeight="1100" math="0" shadow="0">
      <root>
        <mxCell id="7RY1YWYiHsgG8xTm4yaZ-0" />
        <mxCell id="7RY1YWYiHsgG8xTm4yaZ-1" parent="7RY1YWYiHsgG8xTm4yaZ-0" />
        <mxCell id="7RY1YWYiHsgG8xTm4yaZ-14" style="edgeStyle=orthogonalEdgeStyle;rounded=0;orthogonalLoop=1;jettySize=auto;html=1;exitX=1;exitY=0.5;exitDx=0;exitDy=0;entryX=0;entryY=0.5;entryDx=0;entryDy=0;" edge="1" parent="7RY1YWYiHsgG8xTm4yaZ-1" source="7RY1YWYiHsgG8xTm4yaZ-13" target="7RY1YWYiHsgG8xTm4yaZ-16">
          <mxGeometry relative="1" as="geometry">
            <mxPoint x="90" y="350" as="targetPoint" />
          </mxGeometry>
        </mxCell>
        <mxCell id="7RY1YWYiHsgG8xTm4yaZ-15" style="edgeStyle=orthogonalEdgeStyle;rounded=0;orthogonalLoop=1;jettySize=auto;html=1;exitX=1;exitY=0.5;exitDx=0;exitDy=0;entryX=0;entryY=0.5;entryDx=0;entryDy=0;" edge="1" parent="7RY1YWYiHsgG8xTm4yaZ-1" source="7RY1YWYiHsgG8xTm4yaZ-13" target="7RY1YWYiHsgG8xTm4yaZ-17">
          <mxGeometry relative="1" as="geometry">
            <mxPoint x="90" y="460" as="targetPoint" />
          </mxGeometry>
        </mxCell>
        <mxCell id="7RY1YWYiHsgG8xTm4yaZ-13" value="Game States" style="rounded=0;whiteSpace=wrap;html=1;" vertex="1" parent="7RY1YWYiHsgG8xTm4yaZ-1">
          <mxGeometry x="-100" y="380" width="100" height="60" as="geometry" />
        </mxCell>
        <mxCell id="7RY1YWYiHsgG8xTm4yaZ-20" style="edgeStyle=orthogonalEdgeStyle;rounded=0;orthogonalLoop=1;jettySize=auto;html=1;exitX=0.5;exitY=1;exitDx=0;exitDy=0;entryX=0.5;entryY=0;entryDx=0;entryDy=0;dashed=1;" edge="1" parent="7RY1YWYiHsgG8xTm4yaZ-1" source="7RY1YWYiHsgG8xTm4yaZ-16" target="7RY1YWYiHsgG8xTm4yaZ-18">
          <mxGeometry relative="1" as="geometry" />
        </mxCell>
        <mxCell id="7RY1YWYiHsgG8xTm4yaZ-25" style="edgeStyle=orthogonalEdgeStyle;rounded=0;orthogonalLoop=1;jettySize=auto;html=1;exitX=1;exitY=0.5;exitDx=0;exitDy=0;entryX=0;entryY=0.5;entryDx=0;entryDy=0;" edge="1" parent="7RY1YWYiHsgG8xTm4yaZ-1" source="7RY1YWYiHsgG8xTm4yaZ-16" target="7RY1YWYiHsgG8xTm4yaZ-24">
          <mxGeometry relative="1" as="geometry" />
        </mxCell>
        <mxCell id="7RY1YWYiHsgG8xTm4yaZ-26" style="edgeStyle=orthogonalEdgeStyle;rounded=0;orthogonalLoop=1;jettySize=auto;html=1;exitX=1;exitY=0.5;exitDx=0;exitDy=0;entryX=0;entryY=0.5;entryDx=0;entryDy=0;" edge="1" parent="7RY1YWYiHsgG8xTm4yaZ-1" source="7RY1YWYiHsgG8xTm4yaZ-16" target="7RY1YWYiHsgG8xTm4yaZ-23">
          <mxGeometry relative="1" as="geometry" />
        </mxCell>
        <mxCell id="7RY1YWYiHsgG8xTm4yaZ-27" style="edgeStyle=orthogonalEdgeStyle;rounded=0;orthogonalLoop=1;jettySize=auto;html=1;exitX=1;exitY=0.5;exitDx=0;exitDy=0;entryX=0;entryY=0.5;entryDx=0;entryDy=0;" edge="1" parent="7RY1YWYiHsgG8xTm4yaZ-1" source="7RY1YWYiHsgG8xTm4yaZ-16" target="7RY1YWYiHsgG8xTm4yaZ-22">
          <mxGeometry relative="1" as="geometry" />
        </mxCell>
        <mxCell id="7RY1YWYiHsgG8xTm4yaZ-16" value="Ingame" style="rounded=1;whiteSpace=wrap;html=1;" vertex="1" parent="7RY1YWYiHsgG8xTm4yaZ-1">
          <mxGeometry x="130" y="290" width="120" height="60" as="geometry" />
        </mxCell>
        <mxCell id="7RY1YWYiHsgG8xTm4yaZ-21" style="edgeStyle=orthogonalEdgeStyle;rounded=0;orthogonalLoop=1;jettySize=auto;html=1;exitX=0.5;exitY=0;exitDx=0;exitDy=0;entryX=0.5;entryY=1;entryDx=0;entryDy=0;dashed=1;" edge="1" parent="7RY1YWYiHsgG8xTm4yaZ-1" source="7RY1YWYiHsgG8xTm4yaZ-17" target="7RY1YWYiHsgG8xTm4yaZ-18">
          <mxGeometry relative="1" as="geometry" />
        </mxCell>
        <mxCell id="7RY1YWYiHsgG8xTm4yaZ-30" style="edgeStyle=orthogonalEdgeStyle;rounded=0;orthogonalLoop=1;jettySize=auto;html=1;exitX=1;exitY=0.5;exitDx=0;exitDy=0;entryX=0;entryY=0.5;entryDx=0;entryDy=0;" edge="1" parent="7RY1YWYiHsgG8xTm4yaZ-1" source="7RY1YWYiHsgG8xTm4yaZ-17" target="7RY1YWYiHsgG8xTm4yaZ-28">
          <mxGeometry relative="1" as="geometry" />
        </mxCell>
        <mxCell id="7RY1YWYiHsgG8xTm4yaZ-31" style="edgeStyle=orthogonalEdgeStyle;rounded=0;orthogonalLoop=1;jettySize=auto;html=1;exitX=1;exitY=0.5;exitDx=0;exitDy=0;entryX=0;entryY=0.5;entryDx=0;entryDy=0;" edge="1" parent="7RY1YWYiHsgG8xTm4yaZ-1" source="7RY1YWYiHsgG8xTm4yaZ-17" target="7RY1YWYiHsgG8xTm4yaZ-29">
          <mxGeometry relative="1" as="geometry" />
        </mxCell>
        <mxCell id="7RY1YWYiHsgG8xTm4yaZ-17" value="Game Home" style="rounded=1;whiteSpace=wrap;html=1;" vertex="1" parent="7RY1YWYiHsgG8xTm4yaZ-1">
          <mxGeometry x="130" y="510" width="120" height="60" as="geometry" />
        </mxCell>
        <mxCell id="7RY1YWYiHsgG8xTm4yaZ-18" value="Player Info" style="shape=step;perimeter=stepPerimeter;whiteSpace=wrap;html=1;fixedSize=1;" vertex="1" parent="7RY1YWYiHsgG8xTm4yaZ-1">
          <mxGeometry x="140" y="390" width="100" height="30" as="geometry" />
        </mxCell>
        <mxCell id="7RY1YWYiHsgG8xTm4yaZ-22" value="Default State" style="rounded=1;whiteSpace=wrap;html=1;" vertex="1" parent="7RY1YWYiHsgG8xTm4yaZ-1">
          <mxGeometry x="320" y="380" width="120" height="60" as="geometry" />
        </mxCell>
        <mxCell id="7RY1YWYiHsgG8xTm4yaZ-23" value="Ingame Menu" style="rounded=1;whiteSpace=wrap;html=1;" vertex="1" parent="7RY1YWYiHsgG8xTm4yaZ-1">
          <mxGeometry x="320" y="290" width="120" height="60" as="geometry" />
        </mxCell>
        <mxCell id="7RY1YWYiHsgG8xTm4yaZ-24" value="Unit/Building Selected Sidebar" style="rounded=1;whiteSpace=wrap;html=1;" vertex="1" parent="7RY1YWYiHsgG8xTm4yaZ-1">
          <mxGeometry x="320" y="200" width="120" height="60" as="geometry" />
        </mxCell>
        <mxCell id="7RY1YWYiHsgG8xTm4yaZ-28" value="Menu" style="rounded=1;whiteSpace=wrap;html=1;" vertex="1" parent="7RY1YWYiHsgG8xTm4yaZ-1">
          <mxGeometry x="320" y="470" width="120" height="60" as="geometry" />
        </mxCell>
        <mxCell id="7RY1YWYiHsgG8xTm4yaZ-29" value="Default" style="rounded=1;whiteSpace=wrap;html=1;" vertex="1" parent="7RY1YWYiHsgG8xTm4yaZ-1">
          <mxGeometry x="320" y="560" width="120" height="60" as="geometry" />
        </mxCell>
      </root>
    </mxGraphModel>
  </diagram>
</mxfile>
